<svg class="icon" style="width: 1em;height: 1em;vertical-align: middle;fill: currentColor;overflow: hidden;" viewBox="0 0 1024 1024" version="1.1" xmlns="http://www.w3.org/2000/svg" p-id="568"><path d="M512 981.333333C251.733333 981.333333 42.666667 772.266667 42.666667 512S251.733333 42.666667 512 42.666667s469.333333 209.066667 469.333333 469.333333-209.066667 469.333333-469.333333 469.333333z m0-853.333333c-213.333333 0-384 170.666667-384 384s170.666667 384 384 384 384-170.666667 384-384-170.666667-384-384-384z" fill="#040000" p-id="569"></path><path d="M512 554.666667c-25.6 0-42.666667-17.066667-42.666667-42.666667V341.333333c0-25.6 17.066667-42.666667 42.666667-42.666666s42.666667 17.066667 42.666667 42.666666v170.666667c0 25.6-17.066667 42.666667-42.666667 42.666667zM512 725.333333c-25.6 0-42.666667-17.066667-42.666667-42.666666s17.066667-42.666667 42.666667-42.666667 42.666667 17.066667 42.666667 42.666667-17.066667 42.666667-42.666667 42.666666z" fill="#040000" p-id="570"></path></svg>